#!OML:ASF H:\Terrain\Patient Classification 1\Walking\liu\liu.ASF
:FULLY-SPECIFIED
:DEGREES
224
root -2.90554 16.2662 -36.1007 3.57132 1.00312 -2.85998
lowerback 7.3767 1.8803 -1.74109
upperback -3.65654 2.43282 1.29483
thorax -8.13277 1.32281 1.99512
lowerneck -3.41622 -3.97457 -6.62759
upperneck 6.75647 -5.36919 6.19975
head 3.2167 -2.64048 3.03154
rclavicle 4.06033e-014 1.74931e-014
rhumerus -32.1938 1.84964 -79.7523
rradius 30.1324
rwrist 3.33633
rhand -19.8044 -27.2025
rfingers 7.12502
rthumb 6.52866 -57.0818
lclavicle 4.06033e-014 1.74931e-014
lhumerus -26.4575 -2.08239 89.0183
lradius 24.5485
lwrist -31.1027
lhand -28.2957 30.0613
lfingers 7.12502
lthumb -1.67152 60.0345
rfemur -23.8174 -7.71498 14.565
rtibia 51.3949
rfoot -28.0151 1.61284
rtoes -8.75016
lfemur -24.0866 6.78102 -8.18558
ltibia 49.3096
lfoot -24.1956 0.184338
ltoes -9.82189
225
root -2.90466 16.2642 -36.0999 3.55847 1.01582 -2.8401
lowerback 7.38275 1.87412 -1.75313
upperback -3.65361 2.42277 1.2901
thorax -8.13294 1.31836 1.99822
lowerneck -3.41987 -3.97492 -6.64489
upperneck 6.76651 -5.36927 6.2061
head 3.22188 -2.64073 3.03704
rclavicle 4.16594e-015 7.15625e-015
rhumerus -32.2182 1.84994 -79.7456
rradius 30.152
rwrist 3.32803
rhand -19.9914 -27.0471
rfingers 7.12502
rthumb 6.34807 -56.932
lclavicle 4.16594e-015 7.15625e-015
lhumerus -26.4586 -2.06476 89.0137
lradius 24.5378
lwrist -31.0822
lhand -28.3285 30.1013
lfingers 7.12502
lthumb -1.70315 60.0742
rfemur -23.8065 -7.72794 14.5297
rtibia 51.4194
rfoot -28.0405 1.66081
rtoes -8.58162
lfemur -24.0835 6.7648 -8.2087
ltibia 49.342
lfoot -24.2094 0.182495
ltoes -9.74909
226
root -2.90543 16.2626 -36.0995 3.54904 1.00145 -2.8257
lowerback 7.38414 1.88462 -1.77358
upperback -3.65138 2.43377 1.27896
thorax -8.13234 1.32445 1.99631
lowerneck -3.39781 -3.98958 -6.63342
upperneck 6.75304 -5.38981 6.19786
head 3.21371 -2.65122 3.03122
rclavicle 1.80568e-014 3.77691e-015
rhumerus -32.2095 1.79129 -79.7306
rradius 30.1323
rwrist 3.34095
rhand -19.9944 -26.9916
rfingers 7.12502
rthumb 6.34523 -56.8766
lclavicle 1.80568e-014 3.77691e-015
lhumerus -26.4733 -2.09376 89.0072
lradius 24.5479
lwrist -31.031
lhand -28.2683 30.2181
lfingers 7.12502
lthumb -1.64503 60.1915
rfemur -23.8168 -7.69859 14.5155
rtibia 51.4461
rfoot -28.0345 1.64093
rtoes -8.61678
lfemur -24.0884 6.78985 -8.22143
ltibia 49.3681
lfoot -24.2147 0.218449
ltoes -9.86192
227
root -2.90432 16.2606 -36.0992 3.54014 1.00824 -2.87495
lowerback 7.37103 1.86457 -1.71909
upperback -3.65786 2.41451 1.29967
thorax -8.12912 1.31283 1.99071
lowerneck -3.34554 -3.96584 -6.63511
upperneck 6.74257 -5.35885 6.17827
head 3.19702 -2.63735 3.0268
rclavicle -1.084e-015 -5.96354e-016
rhumerus -32.2332 1.81197 -79.7333
rradius 30.1326
rwrist 3.34876
rhand -19.984 -26.9757
rfingers 7.12502
rthumb 6.35528 -56.8603
lclavicle -1.084e-015 -5.96354e-016
lhumerus -26.5129 -2.03908 88.9887
lradius 24.5316
lwrist -31.065
lhand -28.293 30.2308
lfingers 7.12502
lthumb -1.66891 60.204
rfemur -23.8137 -7.71402 14.5648
rtibia 51.4628
rfoot -28.051 1.60746
rtoes -8.72488
lfemur -24.1018 6.80744 -8.16825
ltibia 49.4017
lfoot -24.2367 0.187883
ltoes -9.84498
228
root -2.90418 16.259 -36.0988 3.53503 1.00398 -2.83904
lowerback 7.39018 1.86975 -1.7644
upperback -3.6423 2.41599 1.29634
thorax -8.12555 1.31567 2.01209
lowerneck -3.42894 -3.97052 -6.64942
upperneck 6.75945 -5.36011 6.17793
head 3.21944 -2.63705 3.02835
rclavicle 2.05781e-014 5.76476e-015
rhumerus -32.2156 1.81722 -79.7219
rradius 30.1613
rwrist 3.32854
rhand -20.1122 -26.888
rfingers 7.12502
rthumb 6.23153 -56.7763
lclavicle 2.05781e-014 5.76476e-015
lhumerus -26.4806 -1.99408 88.9878
lradius 24.5152
lwrist -31.0984
lhand -28.2942 30.2195
lfingers 7.12502
lthumb -1.67009 60.1928
rfemur -23.8214 -7.73479 14.5225
rtibia 51.4875
rfoot -28.0642 1.60122
rtoes -8.84104
lfemur -24.1062 6.80611 -8.21073
ltibia 49.4275
lfoot -24.246 0.234721
ltoes -9.8609
229
root -2.90318 16.2578 -36.0989 3.51412 1.01627 -2.84177
lowerback 7.41607 1.86579 -1.74262
upperback -3.64534 2.41215 1.28906
thorax -8.14234 1.3125 1.99194
lowerneck -3.39064 -3.96718 -6.64344
upperneck 6.74068 -5.35735 6.17647
head 3.20513 -2.63616 3.02724
rclavicle -1.39343e-014 -6.55989e-015
rhumerus -32.2306 1.78617 -79.719
rradius 30.168
rwrist 3.34408
rhand -20.0983 -26.8368
rfingers 7.12502
rthumb 6.24488 -56.7248
lclavicle -1.39343e-014 -6.55989e-015
lhumerus -26.4895 -1.98324 88.9663
lradius 24.493
lwrist -31.0811
lhand -28.2069 30.3164
lfingers 7.12502
lthumb -1.58575 60.2903
rfemur -23.8022 -7.77117 14.5147
rtibia 51.501
rfoot -28.0722 1.62624
rtoes -8.8147
lfemur -24.099 6.78664 -8.20652
ltibia 49.4635
lfoot -24.2709 0.223603
ltoes -9.78434
230
root -2.90279 16.2559 -36.0983 3.50726 0.983019 -2.84311
lowerback 7.41668 1.88142 -1.73996
upperback -3.63537 2.4331 1.2861
thorax -8.13277 1.32232 1.98435
lowerneck -3.42481 -3.9728 -6.63299
upperneck 6.72634 -5.36239 6.16802
head 3.20628 -2.63809 3.02157
rclavicle -1.45198e-014 -1.08338e-014
rhumerus -32.244 1.74767 -79.6985
rradius 30.1945
rwrist 3.35902
rhand -20.0304 -26.7689
rfingers 7.12502
rthumb 6.31043 -56.6549
lclavicle -1.45198e-014 -1.08338e-014
lhumerus -26.475 -1.96389 88.9586
lradius 24.4715
lwrist -31.0863
lhand -28.2609 30.1667
lfingers 7.12502
lthumb -1.6379 60.1402
rfemur -23.8009 -7.74735 14.5074
rtibia 51.5223
rfoot -28.0885 1.68703
rtoes -8.64198
lfemur -24.0999 6.83038 -8.20548
ltibia 49.5008
lfoot -24.2937 0.233266
ltoes -9.8078
231
root -2.90194 16.2529 -36.0985 3.47365 0.969495 -2.92791
lowerback 7.45168 1.87786 -1.65806
upperback -3.62348 2.43922 1.31945
thorax -8.13845 1.32183 1.97184
lowerneck -3.44476 -3.96218 -6.64439
upperneck 6.73024 -5.34561 6.15771
head 3.21021 -2.63008 3.0207
rclavicle 1.27067e-014 -1.64991e-014
rhumerus -32.2288 1.77953 -79.6942
rradius 30.2026
rwrist 3.37564
rhand -19.8983 -26.8545
rfingers 7.12502
rthumb 6.43802 -56.7367
lclavicle 1.27067e-014 -1.64991e-014
lhumerus -26.4621 -1.89627 88.9448
lradius 24.4392
lwrist -31.1274
lhand -28.1957 30.1721
lfingers 7.12502
lthumb -1.57489 60.146
rfemur -23.7816 -7.73755 14.5953
rtibia 51.5382
rfoot -28.1067 1.69738
rtoes -8.62343
lfemur -24.0873 6.85549 -8.10718
ltibia 49.5444
lfoot -24.3183 0.263453
ltoes -9.90754
232
root -2.90096 16.2513 -36.0988 3.47336 0.95573 -2.92745
lowerback 7.45474 1.88236 -1.65183
upperback -3.63416 2.4459 1.31822
thorax -8.15175 1.32492 1.96582
lowerneck -3.39234 -3.95984 -6.64902
upperneck 6.69689 -5.34373 6.15543
head 3.18867 -2.63014 3.02139
rclavicle 3.26131e-015 -6.26172e-015
rhumerus -32.2587 1.80406 -79.6959
rradius 30.2322
rwrist 3.34819
rhand -19.8734 -26.9552
rfingers 7.12502
rthumb 6.46203 -56.8366
lclavicle 3.26131e-015 -6.26172e-015
lhumerus -26.4823 -1.84511 88.9235
lradius 24.3987
lwrist -31.2082
lhand -28.2572 30.0926
lfingers 7.12502
lthumb -1.63435 60.0661
rfemur -23.7977 -7.7516 14.5889
rtibia 51.5619
rfoot -28.1116 1.71988
rtoes -8.625
lfemur -24.1054 6.87396 -8.11025
ltibia 49.5823
lfoot -24.3185 0.276096
ltoes -9.93483
233
root -2.89968 16.2497 -36.0985 3.46266 0.922017 -2.91724
lowerback 7.49401 1.89401 -1.65313
upperback -3.6449 2.46042 1.31024
thorax -8.18667 1.33211 1.95467
lowerneck -3.391 -3.96361 -6.64613
upperneck 6.69345 -5.34926 6.15983
head 3.18771 -2.6327 3.02212
rclavicle 1.57086e-014 2.08724e-015
rhumerus -32.296 1.82639 -79.7009
rradius 30.268
rwrist 3.31174
rhand -20.047 -26.8791
rfingers 7.12502
rthumb 6.29447 -56.7656
lclavicle 1.57086e-014 2.08724e-015
lhumerus -26.4968 -1.79769 88.8985
lradius 24.3531
lwrist -31.2965
lhand -28.5442 29.7182
lfingers 7.12502
lthumb -1.91152 59.6894
rfemur -23.8181 -7.77014 14.5684
rtibia 51.5909
rfoot -28.1287 1.76326
rtoes -8.56648
lfemur -24.0923 6.88748 -8.1253
ltibia 49.6141
lfoot -24.3534 0.304734
ltoes -9.94865
234
root -2.89805 16.2479 -36.0981 3.45166 0.898622 -2.89397
lowerback 7.48224 1.90629 -1.66202
upperback -3.62715 2.47532 1.30256
thorax -8.16146 1.33929 1.94993
lowerneck -3.38279 -3.97877 -6.66234
upperneck 6.65231 -5.36837 6.17115
head 3.17459 -2.64236 3.02816
rclavicle 2.0745e-014 7.45443e-015
rhumerus -32.2585 1.79552 -79.6769
rradius 30.246
rwrist 3.35079
rhand -20.1682 -26.6774
rfingers 7.12502
rthumb 6.17741 -56.5674
lclavicle 2.0745e-014 7.45443e-015
lhumerus -26.4728 -1.77629 88.8957
lradius 24.318
lwrist -31.344
lhand -28.3858 29.9486
lfingers 7.12502
lthumb -1.7585 59.9211
rfemur -23.8123 -7.81782 14.5253
rtibia 51.6186
rfoot -28.1668 1.85187
rtoes -8.50205
lfemur -24.0759 6.89288 -8.15435
ltibia 49.6415
lfoot -24.3907 0.315873
ltoes -9.93447
235
root -2.8976 16.2457 -36.0988 3.4504 0.855804 -2.89936
lowerback 7.50568 1.91086 -1.6681
upperback -3.63267 2.481 1.30815
thorax -8.18196 1.34273 1.95764
lowerneck -3.40843 -3.9668 -6.68348
upperneck 6.67966 -5.35222 6.19285
head 3.18953 -2.63385 3.04031
rclavicle -6.80216e-016 -1.27222e-014
rhumerus -32.2647 1.83917 -79.6871
rradius 30.2607
rwrist 3.36606
rhand -19.9004 -26.9561
rfingers 7.12502
rthumb 6.43597 -56.8383
lclavicle -6.80216e-016 -1.27222e-014
lhumerus -26.5019 -1.74186 88.8796
lradius 24.3196
lwrist -31.3501
lhand -28.4215 29.8085
lfingers 7.12502
lthumb -1.79298 59.7807
rfemur -23.8386 -7.78886 14.5283
rtibia 51.6518
rfoot -28.1785 1.8474
rtoes -8.52255
lfemur -24.0732 6.9032 -8.14728
ltibia 49.6662
lfoot -24.4005 0.340804
ltoes -9.92294
236
root -2.89651 16.2447 -36.0982 3.43492 0.824514 -2.9187
lowerback 7.51627 1.91383 -1.65238
upperback -3.63224 2.4872 1.31631
thorax -8.18765 1.34519 1.95622
lowerneck -3.39778 -3.9626 -6.68438
upperneck 6.68758 -5.34779 6.19737
head 3.19012 -2.63171 3.04243
rclavicle -1.4818e-014 -1.49089e-014
rhumerus -32.2744 1.849 -79.6861
rradius 30.2672
rwrist 3.37773
rhand -19.8288 -26.9846
rfingers 7.12502
rthumb 6.5051 -56.8647
lclavicle -1.4818e-014 -1.49089e-014
lhumerus -26.5229 -1.68326 88.8509
lradius 24.3097
lwrist -31.3568
lhand -28.2722 29.9303
lfingers 7.12502
lthumb -1.64883 59.9037
rfemur -23.8408 -7.78309 14.543
rtibia 51.6761
rfoot -28.2032 1.89252
rtoes -8.46753
lfemur -24.0541 6.90951 -8.12599
ltibia 49.6903
lfoot -24.4105 0.378378
ltoes -9.95096
237
root -2.89626 16.2428 -36.0984 3.43742 0.757836 -2.89261
lowerback 7.52616 1.92279 -1.68594
upperback -3.62069 2.49507 1.31272
thorax -8.1828 1.35056 1.96997
lowerneck -3.48087 -3.96098 -6.71618
upperneck 6.71339 -5.34214 6.22741
head 3.21711 -2.62751 3.05831
rclavicle 3.04125e-014 1.23246e-014
rhumerus -32.2665 1.88824 -79.6906
rradius 30.298
rwrist 3.37337
rhand -19.8604 -26.8585
rfingers 7.12502
rthumb 6.47462 -56.7395
lclavicle 3.04125e-014 1.23246e-014
lhumerus -26.5122 -1.64104 88.8316
lradius 24.3126
lwrist -31.3567
lhand -28.3368 30.0193
lfingers 7.12502
lthumb -1.71115 59.9922
rfemur -23.8863 -7.74838 14.5136
rtibia 51.7091
rfoot -28.1941 1.91971
rtoes -8.42548
lfemur -24.0495 6.92994 -8.15652
ltibia 49.7125
lfoot -24.4119 0.44395
ltoes -10.0388
238
root -2.89547 16.2417 -36.0982 3.44534 0.728671 -2.88283
lowerback 7.53024 1.93174 -1.70688
upperback -3.62532 2.50493 1.31464
thorax -8.19181 1.35667 1.9821
lowerneck -3.47794 -3.97784 -6.75594
upperneck 6.70696 -5.36598 6.27599
head 3.21995 -2.63893 3.08172
rclavicle 1.37542e-014 4.37326e-015
rhumerus -32.2524 1.88729 -79.6792
rradius 30.2881
rwrist 3.38027
rhand -20.0057 -26.7571
rfingers 7.12502
rthumb 6.33428 -56.6424
lclavicle 1.37542e-014 4.37326e-015
lhumerus -26.5378 -1.65546 88.8343
lradius 24.3287
lwrist -31.3136
lhand -28.2395 30.1186
lfingers 7.12502
lthumb -1.61719 60.0923
rfemur -23.9142 -7.76655 14.5011
rtibia 51.7388
rfoot -28.2243 1.93891
rtoes -8.47393
lfemur -24.0597 6.94343 -8.17241
ltibia 49.7368
lfoot -24.4247 0.479271
ltoes -10.0806
